<svg viewBox="0 0 24 24" fill="none" xmlns="http://www.w3.org/2000/svg">
  <path d="M20.52 3.48A11.93 11.93 0 0 0 12 0C5.37 0 0 5.37 0 12c0 2.11.55 4.17 1.6 5.97L0 24l6.22-1.63A11.94 11.94 0 0 0 12 24c6.63 0 12-5.37 12-12 0-3.21-1.25-6.22-3.48-8.52zM12 22c-1.85 0-3.66-.5-5.24-1.44l-.37-.22-3.86 1.01 1.04-3.76-.24-.38A9.93 9.93 0 0 1 2 12c0-5.52 4.48-10 10-10 2.67 0 5.18 1.04 7.07 2.93A9.93 9.93 0 0 1 22 12c0 5.52-4.48 10-10 10zm5.47-7.4c-.3-.15-1.77-.87-2.04-.97-.27-.1-.47-.15-.67.15-.2.3-.77.97-.94 1.17-.17.2-.35.22-.65.07-.3-.15-1.26-.47-2.4-1.48-.88-.79-1.48-1.76-1.65-2.06-.17-.3-.02-.46.13-.6.13-.13.3-.35.45-.52.15-.17.2-.3.3-.5.1-.2.05-.37-.02-.52-.07-.15-.67-1.62-.92-2.22-.24-.58-.49-.5-.67-.51-.17 0-.37-.02-.57-.02-.2 0-.52.07-.8.37-.27.3-1.04 1.02-1.04 2.49s1.07 2.9 1.22 3.1c.15.2 2.1 3.2 5.08 4.49.71.31 1.26.49 1.7.63.71.23 1.36.2 1.87.12.57-.09 1.77-.72 2.02-1.42.25-.7.25-1.3.17-1.42-.07-.12-.27-.2-.57-.35z" fill="currentColor"/>
</svg>
